<svg xmlns="http://www.w3.org/2000/svg" viewBox="0 0 1200 900" role="img" aria-label="BRAT Lab hero placeholder">
  <defs>
    <linearGradient id="bg" x1="0" y1="0" x2="1" y2="1">
      <stop offset="0" stop-color="#c8e6c9" />
      <stop offset="1" stop-color="#ffffff" />
    </linearGradient>
    <linearGradient id="accent" x1="0" y1="0" x2="1" y2="1">
      <stop offset="0" stop-color="#2e7d32" stop-opacity="0.9" />
      <stop offset="1" stop-color="#1b5e20" stop-opacity="0.95" />
    </linearGradient>
  </defs>
  <rect width="1200" height="900" rx="36" fill="url(#bg)" />
  <circle cx="260" cy="260" r="190" fill="#2e7d32" fill-opacity="0.18" />
  <circle cx="890" cy="330" r="240" fill="#1b5e20" fill-opacity="0.12" />
  <path d="M140 700c200-210 390-320 560-330 160-10 300 60 420 210v120H140V700z" fill="url(#accent)" fill-opacity="0.18" />
  <rect x="120" y="140" width="960" height="560" rx="28" fill="#ffffff" fill-opacity="0.7" stroke="#1b5e20" stroke-opacity="0.22" />
  <text x="170" y="240" font-family="system-ui, -apple-system, Segoe UI, Roboto, sans-serif" font-size="44" font-weight="800" fill="#1b5e20">BRAT Lab</text>
  <text x="170" y="300" font-family="system-ui, -apple-system, Segoe UI, Roboto, sans-serif" font-size="26" font-weight="650" fill="#2e7d32">Hero image placeholder</text>
  <text x="170" y="365" font-family="system-ui, -apple-system, Segoe UI, Roboto, sans-serif" font-size="20" fill="#0f1b10" fill-opacity="0.7">Replace with a real lab photo, illustration, or campus image.</text>
  <g fill="#2e7d32" fill-opacity="0.22">
    <rect x="170" y="430" width="290" height="18" rx="9" />
    <rect x="170" y="465" width="360" height="18" rx="9" />
    <rect x="170" y="500" width="320" height="18" rx="9" />
  </g>
</svg>
